<svg width="33" height="35" viewBox="0 0 33 35" fill="none" xmlns="http://www.w3.org/2000/svg">
<rect width="33" height="35" fill="black"/>
<path d="M16.5 18.9583C17.8292 18.9583 18.9635 18.4601 19.9031 17.4635C20.8427 16.467 21.3125 15.2639 21.3125 13.8542C21.3125 12.4444 20.8427 11.2413 19.9031 10.2448C18.9635 9.24826 17.8292 8.75 16.5 8.75C15.1708 8.75 14.0365 9.24826 13.0969 10.2448C12.1573 11.2413 11.6875 12.4444 11.6875 13.8542C11.6875 15.2639 12.1573 16.467 13.0969 17.4635C14.0365 18.4601 15.1708 18.9583 16.5 18.9583ZM4.125 30.625V4.375H28.875V30.625H4.125ZM6.875 27.7083H26.125V26.0313C24.8875 24.7431 23.4493 23.7285 21.8103 22.9877C20.1713 22.2469 18.4012 21.876 16.5 21.875C14.5979 21.875 12.8274 22.2459 11.1884 22.9877C9.54938 23.7295 8.11158 24.744 6.875 26.0313V27.7083Z" fill="white"/>
</svg>
